<svg width="407" height="152" viewBox="0 0 407 152" fill="none" xmlns="http://www.w3.org/2000/svg">
<path fill-rule="evenodd" clip-rule="evenodd" d="M201.188 0.854489C174.379 4.32935 158.788 24.3096 162.124 50.92C163.719 63.6505 166.788 70.0322 175.077 77.8546C179.652 82.1713 192.068 88.466 204.521 92.7827C218.537 97.6414 223.451 100.464 225.644 104.916C226.669 106.998 227.322 108.921 226.115 112.307C224.518 116.783 221.169 119.444 215.932 120.393C207.792 121.869 200.955 118.997 197.452 112.63L195.567 109.204L177.303 109.202L159.04 109.199L159.622 112.807C161.709 125.748 168.282 137.588 176.484 143.183C187.072 150.405 203.498 153.327 222.912 151.441C243.289 149.462 254.918 142.758 261.75 129.053C261.75 129.053 264.262 124.843 265.311 121.91C267.126 116.842 267.196 113.594 267.196 108.265C267.196 102.936 267.2 99.6916 265.311 94.6197C264.225 91.7008 261.751 87.4775 261.751 87.4775C259.478 82.9188 256.751 79.1029 254.211 76.9286C248.882 72.3671 237.988 67.0133 226.592 63.3562C205.878 56.7083 200.903 53.0718 200.573 44.3365C200.278 36.573 205.692 31.4406 214.308 31.3172C220.564 31.2275 224.998 33.7101 227.918 38.9369L230.109 42.8602H248.051H265.993L265.392 39.3564C263.153 26.2932 256.365 13.8971 248.572 8.63952C237.682 1.29364 220.094 -1.59632 201.188 0.854489ZM294.057 76.0298V149.377H311.965H329.872V124.263C329.872 102.49 330.343 97.1728 330.343 97.1728C330.343 97.1728 333.305 96.9668 334.428 97.6535C335.291 98.1814 339.637 105.304 344.084 113.483C348.532 121.662 354.719 132.979 357.835 138.631L363.5 148.909L385.25 149.16L407 149.41L391.877 122.998C368.133 81.5294 365.7 77.0828 365.693 75.1309C365.688 73.6705 398.757 13.1655 404.151 4.76663L405.513 2.64564L385.011 2.89792L364.509 3.1502L350.064 27.9106C336.598 50.9928 335.44 52.6709 332.981 52.6709H330.343L330.093 27.677L329.841 2.68302L311.95 2.68302L294.057 2.68302V76.0298Z" fill="#383941"/>
<path d="M0 76.012L0 149.377H17.1128H34.2256L33.565 115.888C32.9674 85.5929 33.0513 82.2797 34.4386 81.1379C35.5187 80.2493 36.416 80.1531 37.4697 80.8118C38.4282 81.4107 42.4216 93.8264 48.5713 115.329L58.1762 148.909L65.7218 149.178L73.2665 149.448L74.2165 145.908C79.306 126.95 92.8213 82.2955 93.7694 81.3061C94.5065 80.5371 95.8495 80.9202 97.0766 81.3061C98.3038 81.692 97.7175 115.888 97.7175 115.888V149.377H114.833H131.949V76.0298V2.68302L110.507 2.69517L89.0655 2.70638L86.4783 13.2066C76.2711 54.6284 71.6049 74.0246 70.6153 79.1346C69.5832 84.4698 67.8773 87.7335 66.1431 87.6952C64.0517 87.6485 62.6993 83.6429 56.2055 58.2771C52.2593 42.8602 47.4347 24.1498 45.4856 16.6983L41.9409 3.1502L20.9704 2.89885L0 2.64752L0 76.012Z" fill="#383941"/>
</svg>
